<svg xmlns="http://www.w3.org/2000/svg" xmlns:xlink="http://www.w3.org/1999/xlink" width="500" zoomAndPan="magnify" viewBox="0 0 375 374.999991" height="500" preserveAspectRatio="xMidYMid meet" version="1.0"><defs><g/><clipPath id="c0b3207e8e"><path d="M 8 135 L 45.964844 135 L 45.964844 239 L 8 239 Z M 8 135 " clip-rule="nonzero"/></clipPath><clipPath id="2dd1b4a6ae"><path d="M 325.003906 136 L 363 136 L 363 239 L 325.003906 239 Z M 325.003906 136 " clip-rule="nonzero"/></clipPath></defs><g clip-path="url(#c0b3207e8e)"><path fill="#f4f6fc" d="M 44.507812 235.371094 C 39.746094 234.796875 34.246094 236.683594 29.878906 234.027344 C 25.628906 231.449219 26.058594 225.347656 26.253906 221.046875 C 26.695312 211.328125 29.015625 199.691406 22.371094 191.414062 C 20.792969 189.453125 18.796875 187.863281 16.5625 186.863281 C 18 186.09375 19.332031 185.089844 20.488281 183.933594 C 23.878906 180.535156 25.738281 175.957031 26.46875 171.242188 C 27.292969 165.929688 26.769531 160.574219 26.378906 155.246094 C 26.179688 152.5 26.015625 149.746094 26.136719 146.996094 C 26.226562 145.007812 26.457031 142.625 27.835938 141.074219 C 29.433594 139.269531 32.15625 138.816406 34.433594 138.761719 C 37.496094 138.691406 40.523438 139.175781 43.582031 138.808594 C 44.789062 138.664062 45.8125 135.65625 44.132812 135.859375 C 39.335938 136.433594 34.398438 134.828125 29.8125 136.949219 C 25.402344 138.988281 23.988281 143.785156 23.789062 148.308594 C 23.546875 153.832031 24.417969 159.320312 24.554688 164.832031 C 24.679688 169.691406 24.253906 174.878906 21.742188 179.148438 C 19.320312 183.269531 14.648438 186.0625 9.84375 185.386719 C 8.808594 185.242188 7.71875 187.289062 8.222656 188.085938 C 8.25 188.546875 8.503906 188.871094 9.097656 188.789062 C 13.433594 188.179688 17.675781 190.566406 20.347656 193.890625 C 23.441406 197.742188 24.464844 202.816406 24.632812 207.65625 C 24.820312 213.066406 23.988281 218.445312 23.855469 223.84375 C 23.746094 228.21875 23.820312 233.667969 27.707031 236.507812 C 32.253906 239.824219 38.265625 237.75 43.382812 238.367188 C 44.636719 238.523438 45.949219 235.542969 44.507812 235.371094 Z M 44.507812 235.371094 " fill-opacity="1" fill-rule="nonzero"/></g><g clip-path="url(#2dd1b4a6ae)"><path fill="#f4f6fc" d="M 326.460938 235.003906 C 331.222656 234.4375 336.722656 236.308594 341.09375 233.671875 C 345.34375 231.109375 344.910156 225.054688 344.714844 220.785156 C 344.273438 211.136719 341.957031 199.582031 348.601562 191.367188 C 350.179688 189.421875 352.175781 187.839844 354.414062 186.847656 C 352.972656 186.085938 351.640625 185.085938 350.484375 183.9375 C 347.089844 180.566406 345.234375 176.019531 344.503906 171.339844 C 343.679688 166.0625 344.199219 160.746094 344.589844 155.457031 C 344.792969 152.734375 344.953125 149.996094 344.832031 147.265625 C 344.746094 145.292969 344.511719 142.929688 343.136719 141.390625 C 341.535156 139.597656 338.8125 139.148438 336.535156 139.09375 C 333.472656 139.023438 330.445312 139.503906 327.382812 139.136719 C 326.179688 138.996094 325.152344 136.011719 326.832031 136.210938 C 331.632812 136.785156 336.570312 135.1875 341.160156 137.292969 C 345.570312 139.320312 346.980469 144.078125 347.183594 148.570312 C 347.425781 154.054688 346.554688 159.503906 346.417969 164.972656 C 346.292969 169.800781 346.71875 174.949219 349.230469 179.191406 C 351.652344 183.28125 356.324219 186.054688 361.128906 185.382812 C 362.167969 185.238281 363.257812 187.269531 362.753906 188.058594 C 362.726562 188.519531 362.472656 188.839844 361.878906 188.757812 C 357.542969 188.15625 353.296875 190.523438 350.625 193.824219 C 347.53125 197.648438 346.503906 202.683594 346.339844 207.492188 C 346.152344 212.863281 346.984375 218.203125 347.117188 223.5625 C 347.222656 227.90625 347.152344 233.316406 343.261719 236.132812 C 338.71875 239.429688 332.703125 237.371094 327.585938 237.980469 C 326.328125 238.132812 325.015625 235.175781 326.460938 235.003906 Z M 326.460938 235.003906 " fill-opacity="1" fill-rule="nonzero"/></g><g fill="#f4f6fc" fill-opacity="1"><g transform="translate(51.769806, 190.580495)"><g><path d="M 11.59375 -26.5 L 11.59375 -17.4375 L 22.90625 -17.4375 L 22.90625 -12.828125 L 11.59375 -12.828125 L 11.59375 0 L 5.28125 0 L 5.28125 -31.125 L 25.09375 -31.125 L 24.40625 -26.5 Z M 11.59375 -26.5 "/></g></g></g><g fill="#f4f6fc" fill-opacity="1"><g transform="translate(73.992706, 190.580495)"><g><path d="M 22.71875 -6.34375 C 22.71875 -5.425781 22.847656 -4.757812 23.109375 -4.34375 C 23.378906 -3.9375 23.804688 -3.628906 24.390625 -3.421875 L 23.109375 0.625 C 21.816406 0.488281 20.71875 0.175781 19.8125 -0.3125 C 18.90625 -0.8125 18.210938 -1.570312 17.734375 -2.59375 C 16.828125 -1.488281 15.679688 -0.660156 14.296875 -0.109375 C 12.921875 0.429688 11.484375 0.703125 9.984375 0.703125 C 7.554688 0.703125 5.625 0.0078125 4.1875 -1.375 C 2.757812 -2.769531 2.046875 -4.566406 2.046875 -6.765625 C 2.046875 -9.316406 3.039062 -11.28125 5.03125 -12.65625 C 7.03125 -14.03125 9.859375 -14.71875 13.515625 -14.71875 L 16.8125 -14.71875 L 16.8125 -15.953125 C 16.8125 -17.347656 16.378906 -18.359375 15.515625 -18.984375 C 14.648438 -19.617188 13.414062 -19.9375 11.8125 -19.9375 C 11.03125 -19.9375 10.066406 -19.832031 8.921875 -19.625 C 7.773438 -19.414062 6.59375 -19.109375 5.375 -18.703125 L 3.9375 -22.84375 C 5.445312 -23.40625 6.976562 -23.828125 8.53125 -24.109375 C 10.09375 -24.390625 11.5 -24.53125 12.75 -24.53125 C 16.125 -24.53125 18.628906 -23.816406 20.265625 -22.390625 C 21.898438 -20.960938 22.71875 -18.941406 22.71875 -16.328125 Z M 11.96875 -3.71875 C 12.863281 -3.71875 13.765625 -3.960938 14.671875 -4.453125 C 15.585938 -4.953125 16.300781 -5.65625 16.8125 -6.5625 L 16.8125 -11.140625 L 14.53125 -11.140625 C 12.351562 -11.140625 10.78125 -10.789062 9.8125 -10.09375 C 8.851562 -9.394531 8.375 -8.398438 8.375 -7.109375 C 8.375 -6.023438 8.679688 -5.1875 9.296875 -4.59375 C 9.910156 -4.007812 10.800781 -3.71875 11.96875 -3.71875 Z M 11.96875 -3.71875 "/></g></g></g><g fill="#f4f6fc" fill-opacity="1"><g transform="translate(96.215606, 190.580495)"><g><path d="M 24.1875 -27.25 L 25.6875 -22.546875 C 24.8125 -22.234375 23.804688 -22.007812 22.671875 -21.875 C 21.535156 -21.75 20.238281 -21.6875 18.78125 -21.6875 C 20.257812 -21.039062 21.375 -20.234375 22.125 -19.265625 C 22.882812 -18.296875 23.265625 -17.070312 23.265625 -15.59375 C 23.265625 -14.050781 22.867188 -12.671875 22.078125 -11.453125 C 21.296875 -10.234375 20.171875 -9.28125 18.703125 -8.59375 C 17.242188 -7.90625 15.507812 -7.5625 13.5 -7.5625 C 12.914062 -7.5625 12.382812 -7.585938 11.90625 -7.640625 C 11.425781 -7.703125 10.957031 -7.785156 10.5 -7.890625 C 10.21875 -7.734375 9.992188 -7.5 9.828125 -7.1875 C 9.660156 -6.882812 9.578125 -6.566406 9.578125 -6.234375 C 9.578125 -5.796875 9.75 -5.414062 10.09375 -5.09375 C 10.445312 -4.769531 11.207031 -4.609375 12.375 -4.609375 L 16.40625 -4.609375 C 18.175781 -4.609375 19.726562 -4.3125 21.0625 -3.71875 C 22.394531 -3.125 23.429688 -2.320312 24.171875 -1.3125 C 24.921875 -0.300781 25.296875 0.847656 25.296875 2.140625 C 25.296875 4.554688 24.25 6.441406 22.15625 7.796875 C 20.0625 9.148438 16.992188 9.828125 12.953125 9.828125 C 10.066406 9.828125 7.816406 9.53125 6.203125 8.9375 C 4.597656 8.351562 3.476562 7.5 2.84375 6.375 C 2.207031 5.257812 1.890625 3.90625 1.890625 2.3125 L 7.296875 2.3125 C 7.296875 3.082031 7.441406 3.710938 7.734375 4.203125 C 8.035156 4.703125 8.601562 5.066406 9.4375 5.296875 C 10.28125 5.523438 11.492188 5.640625 13.078125 5.640625 C 14.660156 5.640625 15.898438 5.507812 16.796875 5.25 C 17.691406 5 18.316406 4.640625 18.671875 4.171875 C 19.035156 3.710938 19.21875 3.175781 19.21875 2.5625 C 19.21875 1.726562 18.867188 1.070312 18.171875 0.59375 C 17.472656 0.125 16.476562 -0.109375 15.1875 -0.109375 L 11.25 -0.109375 C 8.832031 -0.109375 7.066406 -0.578125 5.953125 -1.515625 C 4.847656 -2.453125 4.296875 -3.546875 4.296875 -4.796875 C 4.296875 -5.628906 4.523438 -6.429688 4.984375 -7.203125 C 5.453125 -7.984375 6.113281 -8.648438 6.96875 -9.203125 C 5.488281 -9.984375 4.421875 -10.914062 3.765625 -12 C 3.117188 -13.09375 2.796875 -14.410156 2.796875 -15.953125 C 2.796875 -17.691406 3.234375 -19.195312 4.109375 -20.46875 C 4.984375 -21.75 6.195312 -22.738281 7.75 -23.4375 C 9.300781 -24.144531 11.082031 -24.5 13.09375 -24.5 C 14.9375 -24.488281 16.503906 -24.601562 17.796875 -24.84375 C 19.097656 -25.082031 20.25 -25.414062 21.25 -25.84375 C 22.257812 -26.269531 23.238281 -26.738281 24.1875 -27.25 Z M 13.203125 -20.46875 C 11.835938 -20.46875 10.785156 -20.054688 10.046875 -19.234375 C 9.316406 -18.421875 8.953125 -17.34375 8.953125 -16 C 8.953125 -14.601562 9.328125 -13.5 10.078125 -12.6875 C 10.828125 -11.875 11.882812 -11.46875 13.25 -11.46875 C 14.582031 -11.46875 15.597656 -11.863281 16.296875 -12.65625 C 16.992188 -13.445312 17.34375 -14.59375 17.34375 -16.09375 C 17.34375 -17.5625 16.992188 -18.65625 16.296875 -19.375 C 15.597656 -20.101562 14.566406 -20.46875 13.203125 -20.46875 Z M 13.203125 -20.46875 "/></g></g></g><g fill="#f4f6fc" fill-opacity="1"><g transform="translate(118.438503, 190.580495)"><g><path d="M 3.578125 0 L 3.578125 -23.828125 L 8.859375 -23.828125 L 9.296875 -20.90625 C 10.328125 -22.101562 11.472656 -23.003906 12.734375 -23.609375 C 13.992188 -24.222656 15.359375 -24.53125 16.828125 -24.53125 C 18.960938 -24.53125 20.597656 -23.910156 21.734375 -22.671875 C 22.867188 -21.429688 23.4375 -19.6875 23.4375 -17.4375 L 23.4375 0 L 17.375 0 L 17.375 -15.171875 C 17.375 -16.335938 17.296875 -17.273438 17.140625 -17.984375 C 16.992188 -18.703125 16.710938 -19.210938 16.296875 -19.515625 C 15.890625 -19.828125 15.296875 -19.984375 14.515625 -19.984375 C 13.878906 -19.984375 13.269531 -19.847656 12.6875 -19.578125 C 12.113281 -19.304688 11.570312 -18.929688 11.0625 -18.453125 C 10.5625 -17.984375 10.09375 -17.457031 9.65625 -16.875 L 9.65625 0 Z M 3.578125 0 "/></g></g></g><g fill="#f4f6fc" fill-opacity="1"><g transform="translate(140.661405, 190.580495)"><g><path d="M 8.75 -10.078125 C 8.882812 -8.609375 9.226562 -7.414062 9.78125 -6.5 C 10.34375 -5.582031 11.0625 -4.914062 11.9375 -4.5 C 12.8125 -4.082031 13.78125 -3.875 14.84375 -3.875 C 15.988281 -3.875 17.0625 -4.050781 18.0625 -4.40625 C 19.070312 -4.769531 20.0625 -5.265625 21.03125 -5.890625 L 23.5625 -2.453125 C 22.445312 -1.523438 21.113281 -0.765625 19.5625 -0.171875 C 18.019531 0.410156 16.320312 0.703125 14.46875 0.703125 C 11.851562 0.703125 9.660156 0.164062 7.890625 -0.90625 C 6.128906 -1.976562 4.789062 -3.457031 3.875 -5.34375 C 2.96875 -7.238281 2.515625 -9.425781 2.515625 -11.90625 C 2.515625 -14.257812 2.957031 -16.390625 3.84375 -18.296875 C 4.726562 -20.210938 6.007812 -21.726562 7.6875 -22.84375 C 9.375 -23.96875 11.398438 -24.53125 13.765625 -24.53125 C 15.960938 -24.53125 17.863281 -24.046875 19.46875 -23.078125 C 21.070312 -22.117188 22.304688 -20.738281 23.171875 -18.9375 C 24.046875 -17.144531 24.484375 -14.988281 24.484375 -12.46875 C 24.484375 -12.0625 24.472656 -11.644531 24.453125 -11.21875 C 24.441406 -10.789062 24.414062 -10.410156 24.375 -10.078125 Z M 13.796875 -20.265625 C 12.367188 -20.265625 11.203125 -19.753906 10.296875 -18.734375 C 9.390625 -17.722656 8.851562 -16.117188 8.6875 -13.921875 L 18.578125 -13.921875 C 18.554688 -15.898438 18.148438 -17.453125 17.359375 -18.578125 C 16.566406 -19.703125 15.378906 -20.265625 13.796875 -20.265625 Z M 13.796875 -20.265625 "/></g></g></g><g fill="#f4f6fc" fill-opacity="1"><g transform="translate(162.884308, 190.580495)"><g><path d="M 3.796875 0 L 3.796875 -4.1875 L 7.109375 -4.1875 L 7.109375 -19.671875 L 3.796875 -19.671875 L 3.796875 -23.828125 L 11.75 -23.828125 L 12.875 -18.375 C 13.738281 -20.40625 14.832031 -21.929688 16.15625 -22.953125 C 17.476562 -23.972656 19.132812 -24.484375 21.125 -24.484375 C 21.894531 -24.484375 22.570312 -24.425781 23.15625 -24.3125 C 23.75 -24.195312 24.328125 -24.035156 24.890625 -23.828125 L 23.046875 -18.75 C 22.585938 -18.863281 22.144531 -18.953125 21.71875 -19.015625 C 21.289062 -19.078125 20.816406 -19.109375 20.296875 -19.109375 C 18.660156 -19.109375 17.234375 -18.46875 16.015625 -17.1875 C 14.804688 -15.914062 13.863281 -14.191406 13.1875 -12.015625 L 13.1875 -4.1875 L 17.953125 -4.1875 L 17.953125 0 Z M 19.75 -14.4375 L 19.75 -20.859375 L 20.609375 -23.828125 L 24.890625 -23.828125 L 23.8125 -14.4375 Z M 19.75 -14.4375 "/></g></g></g><g fill="#f4f6fc" fill-opacity="1"><g transform="translate(185.107211, 190.580495)"><g/></g></g><g fill="#f4f6fc" fill-opacity="1"><g transform="translate(207.330114, 190.580495)"><g><path d="M 16.359375 0 L 7.296875 -25.765625 C 7.367188 -25.191406 7.457031 -24.453125 7.5625 -23.546875 C 7.664062 -22.640625 7.769531 -21.613281 7.875 -20.46875 C 7.976562 -19.332031 8.0625 -18.125 8.125 -16.84375 C 8.195312 -15.5625 8.234375 -14.257812 8.234375 -12.9375 L 8.234375 0 L 2.796875 0 L 2.796875 -31.125 L 10.78125 -31.125 L 19.703125 -5.421875 C 19.585938 -6.203125 19.453125 -7.222656 19.296875 -8.484375 C 19.148438 -9.753906 19.023438 -11.203125 18.921875 -12.828125 C 18.816406 -14.460938 18.765625 -16.207031 18.765625 -18.0625 L 18.765625 -31.125 L 24.203125 -31.125 L 24.203125 0 Z M 16.359375 0 "/></g></g></g><g fill="#f4f6fc" fill-opacity="1"><g transform="translate(229.553017, 190.580495)"><g><path d="M 9.65625 -23.828125 L 9.65625 -7.328125 C 9.65625 -6.054688 9.898438 -5.160156 10.390625 -4.640625 C 10.890625 -4.128906 11.613281 -3.875 12.5625 -3.875 C 13.46875 -3.875 14.351562 -4.148438 15.21875 -4.703125 C 16.09375 -5.253906 16.800781 -5.96875 17.34375 -6.84375 L 17.34375 -23.828125 L 23.421875 -23.828125 L 23.421875 0 L 18.140625 0 L 17.8125 -2.921875 C 16.976562 -1.734375 15.894531 -0.832031 14.5625 -0.21875 C 13.226562 0.394531 11.847656 0.703125 10.421875 0.703125 C 8.109375 0.703125 6.390625 0.046875 5.265625 -1.265625 C 4.140625 -2.578125 3.578125 -4.351562 3.578125 -6.59375 L 3.578125 -23.828125 Z M 9.65625 -23.828125 "/></g></g></g><g fill="#f4f6fc" fill-opacity="1"><g transform="translate(251.775919, 190.580495)"><g><path d="M 3.578125 0 L 3.578125 -23.828125 L 8.859375 -23.828125 L 9.296875 -20.90625 C 10.328125 -22.101562 11.472656 -23.003906 12.734375 -23.609375 C 13.992188 -24.222656 15.359375 -24.53125 16.828125 -24.53125 C 18.960938 -24.53125 20.597656 -23.910156 21.734375 -22.671875 C 22.867188 -21.429688 23.4375 -19.6875 23.4375 -17.4375 L 23.4375 0 L 17.375 0 L 17.375 -15.171875 C 17.375 -16.335938 17.296875 -17.273438 17.140625 -17.984375 C 16.992188 -18.703125 16.710938 -19.210938 16.296875 -19.515625 C 15.890625 -19.828125 15.296875 -19.984375 14.515625 -19.984375 C 13.878906 -19.984375 13.269531 -19.847656 12.6875 -19.578125 C 12.113281 -19.304688 11.570312 -18.929688 11.0625 -18.453125 C 10.5625 -17.984375 10.09375 -17.457031 9.65625 -16.875 L 9.65625 0 Z M 3.578125 0 "/></g></g></g><g fill="#f4f6fc" fill-opacity="1"><g transform="translate(273.998811, 190.580495)"><g><path d="M 8.75 -10.078125 C 8.882812 -8.609375 9.226562 -7.414062 9.78125 -6.5 C 10.34375 -5.582031 11.0625 -4.914062 11.9375 -4.5 C 12.8125 -4.082031 13.78125 -3.875 14.84375 -3.875 C 15.988281 -3.875 17.0625 -4.050781 18.0625 -4.40625 C 19.070312 -4.769531 20.0625 -5.265625 21.03125 -5.890625 L 23.5625 -2.453125 C 22.445312 -1.523438 21.113281 -0.765625 19.5625 -0.171875 C 18.019531 0.410156 16.320312 0.703125 14.46875 0.703125 C 11.851562 0.703125 9.660156 0.164062 7.890625 -0.90625 C 6.128906 -1.976562 4.789062 -3.457031 3.875 -5.34375 C 2.96875 -7.238281 2.515625 -9.425781 2.515625 -11.90625 C 2.515625 -14.257812 2.957031 -16.390625 3.84375 -18.296875 C 4.726562 -20.210938 6.007812 -21.726562 7.6875 -22.84375 C 9.375 -23.96875 11.398438 -24.53125 13.765625 -24.53125 C 15.960938 -24.53125 17.863281 -24.046875 19.46875 -23.078125 C 21.070312 -22.117188 22.304688 -20.738281 23.171875 -18.9375 C 24.046875 -17.144531 24.484375 -14.988281 24.484375 -12.46875 C 24.484375 -12.0625 24.472656 -11.644531 24.453125 -11.21875 C 24.441406 -10.789062 24.414062 -10.410156 24.375 -10.078125 Z M 13.796875 -20.265625 C 12.367188 -20.265625 11.203125 -19.753906 10.296875 -18.734375 C 9.390625 -17.722656 8.851562 -16.117188 8.6875 -13.921875 L 18.578125 -13.921875 C 18.554688 -15.898438 18.148438 -17.453125 17.359375 -18.578125 C 16.566406 -19.703125 15.378906 -20.265625 13.796875 -20.265625 Z M 13.796875 -20.265625 "/></g></g></g><g fill="#f4f6fc" fill-opacity="1"><g transform="translate(296.221702, 190.580495)"><g><path d="M 12.6875 -3.78125 C 14.070312 -3.78125 15.175781 -4.015625 16 -4.484375 C 16.820312 -4.960938 17.234375 -5.632812 17.234375 -6.5 C 17.234375 -7.070312 17.097656 -7.5625 16.828125 -7.96875 C 16.554688 -8.375 16.007812 -8.75 15.1875 -9.09375 C 14.375 -9.4375 13.164062 -9.828125 11.5625 -10.265625 C 10.050781 -10.648438 8.71875 -11.132812 7.5625 -11.71875 C 6.414062 -12.300781 5.523438 -13.050781 4.890625 -13.96875 C 4.253906 -14.882812 3.9375 -16.039062 3.9375 -17.4375 C 3.9375 -18.832031 4.328125 -20.0625 5.109375 -21.125 C 5.898438 -22.1875 7.035156 -23.019531 8.515625 -23.625 C 10.003906 -24.226562 11.789062 -24.53125 13.875 -24.53125 C 15.945312 -24.53125 17.75 -24.257812 19.28125 -23.71875 C 20.8125 -23.1875 22.125 -22.519531 23.21875 -21.71875 L 20.765625 -18.046875 C 19.804688 -18.660156 18.765625 -19.15625 17.640625 -19.53125 C 16.515625 -19.90625 15.316406 -20.09375 14.046875 -20.09375 C 12.660156 -20.09375 11.65625 -19.894531 11.03125 -19.5 C 10.414062 -19.113281 10.109375 -18.5625 10.109375 -17.84375 C 10.109375 -17.34375 10.265625 -16.925781 10.578125 -16.59375 C 10.890625 -16.257812 11.46875 -15.925781 12.3125 -15.59375 C 13.164062 -15.257812 14.375 -14.875 15.9375 -14.4375 C 17.476562 -14.007812 18.828125 -13.507812 19.984375 -12.9375 C 21.140625 -12.363281 22.03125 -11.601562 22.65625 -10.65625 C 23.289062 -9.71875 23.609375 -8.484375 23.609375 -6.953125 C 23.609375 -5.222656 23.097656 -3.789062 22.078125 -2.65625 C 21.066406 -1.53125 19.734375 -0.6875 18.078125 -0.125 C 16.429688 0.425781 14.644531 0.703125 12.71875 0.703125 C 10.46875 0.703125 8.492188 0.375 6.796875 -0.28125 C 5.097656 -0.9375 3.664062 -1.773438 2.5 -2.796875 L 5.640625 -6.328125 C 6.578125 -5.585938 7.632812 -4.976562 8.8125 -4.5 C 10 -4.019531 11.289062 -3.78125 12.6875 -3.78125 Z M 12.6875 -3.78125 "/></g></g></g><g fill="#f4f6fc" fill-opacity="1"><g transform="translate(122.250788, 221.580513)"><g><path d="M 11.859375 -13.734375 L 9.625 0 L 7.6875 0 L 5.9375 -10.53125 L 4.203125 0 L 2.203125 0 L 0.140625 -13.734375 L 1.484375 -13.734375 L 3.25 -1.640625 L 5.046875 -12.140625 L 6.96875 -12.140625 L 8.6875 -1.640625 L 10.625 -13.734375 Z M 11.859375 -13.734375 "/></g></g></g><g fill="#f4f6fc" fill-opacity="1"><g transform="translate(132.126058, 221.580513)"><g><path d="M 3.09375 -4.75 C 3.113281 -3.875 3.269531 -3.148438 3.5625 -2.578125 C 3.863281 -2.015625 4.253906 -1.597656 4.734375 -1.328125 C 5.222656 -1.066406 5.753906 -0.9375 6.328125 -0.9375 C 6.878906 -0.9375 7.367188 -1.015625 7.796875 -1.171875 C 8.234375 -1.335938 8.6875 -1.582031 9.15625 -1.90625 L 9.8125 -0.984375 C 9.320312 -0.609375 8.769531 -0.316406 8.15625 -0.109375 C 7.550781 0.0976562 6.957031 0.203125 6.375 0.203125 C 5.414062 0.203125 4.585938 -0.0195312 3.890625 -0.46875 C 3.203125 -0.925781 2.675781 -1.5625 2.3125 -2.375 C 1.945312 -3.195312 1.765625 -4.148438 1.765625 -5.234375 C 1.765625 -6.304688 1.945312 -7.25 2.3125 -8.0625 C 2.6875 -8.882812 3.207031 -9.523438 3.875 -9.984375 C 4.539062 -10.453125 5.3125 -10.6875 6.1875 -10.6875 C 7.039062 -10.6875 7.769531 -10.476562 8.375 -10.0625 C 8.988281 -9.65625 9.457031 -9.070312 9.78125 -8.3125 C 10.101562 -7.5625 10.265625 -6.660156 10.265625 -5.609375 C 10.265625 -5.429688 10.257812 -5.269531 10.25 -5.125 C 10.238281 -4.976562 10.234375 -4.851562 10.234375 -4.75 Z M 6.21875 -9.53125 C 5.375 -9.53125 4.660156 -9.226562 4.078125 -8.625 C 3.503906 -8.03125 3.179688 -7.113281 3.109375 -5.875 L 9.078125 -5.875 C 9.054688 -7.101562 8.78125 -8.019531 8.25 -8.625 C 7.71875 -9.226562 7.039062 -9.53125 6.21875 -9.53125 Z M 6.21875 -9.53125 "/></g></g></g><g fill="#f4f6fc" fill-opacity="1"><g transform="translate(142.001329, 221.580513)"><g><path d="M 3.4375 -9.046875 C 3.832031 -9.578125 4.285156 -9.984375 4.796875 -10.265625 C 5.316406 -10.546875 5.890625 -10.6875 6.515625 -10.6875 C 7.460938 -10.6875 8.226562 -10.457031 8.8125 -10 C 9.394531 -9.550781 9.816406 -8.914062 10.078125 -8.09375 C 10.335938 -7.28125 10.46875 -6.332031 10.46875 -5.25 C 10.46875 -4.195312 10.304688 -3.257812 9.984375 -2.4375 C 9.671875 -1.613281 9.207031 -0.96875 8.59375 -0.5 C 7.988281 -0.03125 7.234375 0.203125 6.328125 0.203125 C 5.078125 0.203125 4.097656 -0.238281 3.390625 -1.125 L 3.265625 0 L 2.1875 0 L 2.1875 -14.75 L 3.4375 -14.921875 Z M 6.0625 -0.875 C 7.03125 -0.875 7.769531 -1.238281 8.28125 -1.96875 C 8.800781 -2.695312 9.0625 -3.796875 9.0625 -5.265625 C 9.0625 -6.203125 8.957031 -6.992188 8.75 -7.640625 C 8.550781 -8.285156 8.25 -8.773438 7.84375 -9.109375 C 7.445312 -9.453125 6.945312 -9.625 6.34375 -9.625 C 5.6875 -9.625 5.109375 -9.425781 4.609375 -9.03125 C 4.117188 -8.644531 3.726562 -8.234375 3.4375 -7.796875 L 3.4375 -2.359375 C 3.726562 -1.910156 4.101562 -1.550781 4.5625 -1.28125 C 5.03125 -1.007812 5.53125 -0.875 6.0625 -0.875 Z M 6.0625 -0.875 "/></g></g></g><g fill="#f4f6fc" fill-opacity="1"><g transform="translate(151.876598, 221.580513)"><g/></g></g><g fill="#f4f6fc" fill-opacity="1"><g transform="translate(161.75187, 221.580513)"><g><path d="M 8.5625 -14.921875 L 9.8125 -14.75 L 9.8125 0 L 8.734375 0 L 8.5625 -1.453125 C 8.144531 -0.847656 7.675781 -0.421875 7.15625 -0.171875 C 6.644531 0.078125 6.113281 0.203125 5.5625 0.203125 C 4.644531 0.203125 3.882812 -0.0234375 3.28125 -0.484375 C 2.6875 -0.941406 2.242188 -1.578125 1.953125 -2.390625 C 1.671875 -3.210938 1.53125 -4.15625 1.53125 -5.21875 C 1.53125 -6.269531 1.691406 -7.207031 2.015625 -8.03125 C 2.335938 -8.851562 2.800781 -9.5 3.40625 -9.96875 C 4.019531 -10.445312 4.757812 -10.6875 5.625 -10.6875 C 6.269531 -10.6875 6.832031 -10.570312 7.3125 -10.34375 C 7.789062 -10.125 8.207031 -9.800781 8.5625 -9.375 Z M 5.9375 -9.625 C 4.96875 -9.625 4.222656 -9.253906 3.703125 -8.515625 C 3.191406 -7.773438 2.9375 -6.679688 2.9375 -5.234375 C 2.9375 -4.304688 3.039062 -3.519531 3.25 -2.875 C 3.457031 -2.226562 3.765625 -1.734375 4.171875 -1.390625 C 4.585938 -1.046875 5.109375 -0.875 5.734375 -0.875 C 6.398438 -0.875 6.960938 -1.0625 7.421875 -1.4375 C 7.890625 -1.8125 8.269531 -2.222656 8.5625 -2.671875 L 8.5625 -8.125 C 8.257812 -8.601562 7.878906 -8.972656 7.421875 -9.234375 C 6.960938 -9.492188 6.46875 -9.625 5.9375 -9.625 Z M 5.9375 -9.625 "/></g></g></g><g fill="#f4f6fc" fill-opacity="1"><g transform="translate(171.627142, 221.580513)"><g><path d="M 3.09375 -4.75 C 3.113281 -3.875 3.269531 -3.148438 3.5625 -2.578125 C 3.863281 -2.015625 4.253906 -1.597656 4.734375 -1.328125 C 5.222656 -1.066406 5.753906 -0.9375 6.328125 -0.9375 C 6.878906 -0.9375 7.367188 -1.015625 7.796875 -1.171875 C 8.234375 -1.335938 8.6875 -1.582031 9.15625 -1.90625 L 9.8125 -0.984375 C 9.320312 -0.609375 8.769531 -0.316406 8.15625 -0.109375 C 7.550781 0.0976562 6.957031 0.203125 6.375 0.203125 C 5.414062 0.203125 4.585938 -0.0195312 3.890625 -0.46875 C 3.203125 -0.925781 2.675781 -1.5625 2.3125 -2.375 C 1.945312 -3.195312 1.765625 -4.148438 1.765625 -5.234375 C 1.765625 -6.304688 1.945312 -7.25 2.3125 -8.0625 C 2.6875 -8.882812 3.207031 -9.523438 3.875 -9.984375 C 4.539062 -10.453125 5.3125 -10.6875 6.1875 -10.6875 C 7.039062 -10.6875 7.769531 -10.476562 8.375 -10.0625 C 8.988281 -9.65625 9.457031 -9.070312 9.78125 -8.3125 C 10.101562 -7.5625 10.265625 -6.660156 10.265625 -5.609375 C 10.265625 -5.429688 10.257812 -5.269531 10.25 -5.125 C 10.238281 -4.976562 10.234375 -4.851562 10.234375 -4.75 Z M 6.21875 -9.53125 C 5.375 -9.53125 4.660156 -9.226562 4.078125 -8.625 C 3.503906 -8.03125 3.179688 -7.113281 3.109375 -5.875 L 9.078125 -5.875 C 9.054688 -7.101562 8.78125 -8.019531 8.25 -8.625 C 7.71875 -9.226562 7.039062 -9.53125 6.21875 -9.53125 Z M 6.21875 -9.53125 "/></g></g></g><g fill="#f4f6fc" fill-opacity="1"><g transform="translate(181.502414, 221.580513)"><g><path d="M 10.59375 -10.5 L 6.6875 0 L 5.265625 0 L 1.40625 -10.5 L 2.6875 -10.5 L 6.03125 -1.265625 L 9.296875 -10.5 Z M 10.59375 -10.5 "/></g></g></g><g fill="#f4f6fc" fill-opacity="1"><g transform="translate(191.377686, 221.580513)"><g><path d="M 3.09375 -4.75 C 3.113281 -3.875 3.269531 -3.148438 3.5625 -2.578125 C 3.863281 -2.015625 4.253906 -1.597656 4.734375 -1.328125 C 5.222656 -1.066406 5.753906 -0.9375 6.328125 -0.9375 C 6.878906 -0.9375 7.367188 -1.015625 7.796875 -1.171875 C 8.234375 -1.335938 8.6875 -1.582031 9.15625 -1.90625 L 9.8125 -0.984375 C 9.320312 -0.609375 8.769531 -0.316406 8.15625 -0.109375 C 7.550781 0.0976562 6.957031 0.203125 6.375 0.203125 C 5.414062 0.203125 4.585938 -0.0195312 3.890625 -0.46875 C 3.203125 -0.925781 2.675781 -1.5625 2.3125 -2.375 C 1.945312 -3.195312 1.765625 -4.148438 1.765625 -5.234375 C 1.765625 -6.304688 1.945312 -7.25 2.3125 -8.0625 C 2.6875 -8.882812 3.207031 -9.523438 3.875 -9.984375 C 4.539062 -10.453125 5.3125 -10.6875 6.1875 -10.6875 C 7.039062 -10.6875 7.769531 -10.476562 8.375 -10.0625 C 8.988281 -9.65625 9.457031 -9.070312 9.78125 -8.3125 C 10.101562 -7.5625 10.265625 -6.660156 10.265625 -5.609375 C 10.265625 -5.429688 10.257812 -5.269531 10.25 -5.125 C 10.238281 -4.976562 10.234375 -4.851562 10.234375 -4.75 Z M 6.21875 -9.53125 C 5.375 -9.53125 4.660156 -9.226562 4.078125 -8.625 C 3.503906 -8.03125 3.179688 -7.113281 3.109375 -5.875 L 9.078125 -5.875 C 9.054688 -7.101562 8.78125 -8.019531 8.25 -8.625 C 7.71875 -9.226562 7.039062 -9.53125 6.21875 -9.53125 Z M 6.21875 -9.53125 "/></g></g></g><g fill="#f4f6fc" fill-opacity="1"><g transform="translate(201.252958, 221.580513)"><g><path d="M 5.859375 -14.75 L 5.859375 -2.375 C 5.859375 -1.832031 6.03125 -1.445312 6.375 -1.21875 C 6.726562 -0.988281 7.171875 -0.875 7.703125 -0.875 C 8.035156 -0.875 8.347656 -0.90625 8.640625 -0.96875 C 8.941406 -1.039062 9.25 -1.140625 9.5625 -1.265625 L 9.921875 -0.296875 C 9.660156 -0.171875 9.328125 -0.0546875 8.921875 0.046875 C 8.523438 0.148438 8.082031 0.203125 7.59375 0.203125 C 6.757812 0.203125 6.054688 -0.0195312 5.484375 -0.46875 C 4.910156 -0.925781 4.625 -1.5625 4.625 -2.375 L 4.625 -13.671875 L 1.359375 -13.671875 L 1.359375 -14.75 Z M 5.859375 -14.75 "/></g></g></g><g fill="#f4f6fc" fill-opacity="1"><g transform="translate(211.128231, 221.580513)"><g><path d="M 6.03125 -10.6875 C 6.988281 -10.6875 7.785156 -10.460938 8.421875 -10.015625 C 9.066406 -9.566406 9.546875 -8.9375 9.859375 -8.125 C 10.179688 -7.3125 10.34375 -6.351562 10.34375 -5.25 C 10.34375 -4.207031 10.175781 -3.273438 9.84375 -2.453125 C 9.519531 -1.640625 9.035156 -0.992188 8.390625 -0.515625 C 7.753906 -0.0351562 6.957031 0.203125 6 0.203125 C 5.039062 0.203125 4.238281 -0.0234375 3.59375 -0.484375 C 2.945312 -0.941406 2.460938 -1.578125 2.140625 -2.390625 C 1.816406 -3.210938 1.65625 -4.160156 1.65625 -5.234375 C 1.65625 -6.304688 1.816406 -7.25 2.140625 -8.0625 C 2.472656 -8.882812 2.960938 -9.523438 3.609375 -9.984375 C 4.265625 -10.453125 5.070312 -10.6875 6.03125 -10.6875 Z M 6.03125 -9.59375 C 5.039062 -9.59375 4.289062 -9.234375 3.78125 -8.515625 C 3.269531 -7.804688 3.015625 -6.710938 3.015625 -5.234375 C 3.015625 -3.773438 3.265625 -2.6875 3.765625 -1.96875 C 4.265625 -1.257812 5.007812 -0.90625 6 -0.90625 C 6.988281 -0.90625 7.734375 -1.257812 8.234375 -1.96875 C 8.734375 -2.6875 8.984375 -3.78125 8.984375 -5.25 C 8.984375 -6.71875 8.734375 -7.804688 8.234375 -8.515625 C 7.734375 -9.234375 7 -9.59375 6.03125 -9.59375 Z M 6.03125 -9.59375 "/></g></g></g><g fill="#f4f6fc" fill-opacity="1"><g transform="translate(221.003497, 221.580513)"><g><path d="M 6.546875 -10.6875 C 7.484375 -10.6875 8.226562 -10.457031 8.78125 -10 C 9.34375 -9.550781 9.742188 -8.914062 9.984375 -8.09375 C 10.222656 -7.28125 10.34375 -6.332031 10.34375 -5.25 C 10.34375 -4.195312 10.195312 -3.257812 9.90625 -2.4375 C 9.613281 -1.613281 9.171875 -0.96875 8.578125 -0.5 C 7.984375 -0.03125 7.222656 0.203125 6.296875 0.203125 C 5.097656 0.203125 4.144531 -0.210938 3.4375 -1.046875 L 3.4375 4.015625 L 2.1875 4.1875 L 2.1875 -10.5 L 3.203125 -10.5 L 3.34375 -8.953125 C 3.71875 -9.484375 4.175781 -9.90625 4.71875 -10.21875 C 5.269531 -10.53125 5.878906 -10.6875 6.546875 -10.6875 Z M 6.328125 -9.625 C 5.679688 -9.625 5.109375 -9.425781 4.609375 -9.03125 C 4.117188 -8.644531 3.726562 -8.234375 3.4375 -7.796875 L 3.4375 -2.359375 C 3.726562 -1.921875 4.101562 -1.570312 4.5625 -1.3125 C 5.03125 -1.0625 5.539062 -0.9375 6.09375 -0.9375 C 7.0625 -0.9375 7.785156 -1.289062 8.265625 -2 C 8.742188 -2.707031 8.984375 -3.796875 8.984375 -5.265625 C 8.984375 -6.203125 8.890625 -6.992188 8.703125 -7.640625 C 8.515625 -8.285156 8.222656 -8.773438 7.828125 -9.109375 C 7.441406 -9.453125 6.941406 -9.625 6.328125 -9.625 Z M 6.328125 -9.625 "/></g></g></g><g fill="#f4f6fc" fill-opacity="1"><g transform="translate(230.878763, 221.580513)"><g><path d="M 3.09375 -4.75 C 3.113281 -3.875 3.269531 -3.148438 3.5625 -2.578125 C 3.863281 -2.015625 4.253906 -1.597656 4.734375 -1.328125 C 5.222656 -1.066406 5.753906 -0.9375 6.328125 -0.9375 C 6.878906 -0.9375 7.367188 -1.015625 7.796875 -1.171875 C 8.234375 -1.335938 8.6875 -1.582031 9.15625 -1.90625 L 9.8125 -0.984375 C 9.320312 -0.609375 8.769531 -0.316406 8.15625 -0.109375 C 7.550781 0.0976562 6.957031 0.203125 6.375 0.203125 C 5.414062 0.203125 4.585938 -0.0195312 3.890625 -0.46875 C 3.203125 -0.925781 2.675781 -1.5625 2.3125 -2.375 C 1.945312 -3.195312 1.765625 -4.148438 1.765625 -5.234375 C 1.765625 -6.304688 1.945312 -7.25 2.3125 -8.0625 C 2.6875 -8.882812 3.207031 -9.523438 3.875 -9.984375 C 4.539062 -10.453125 5.3125 -10.6875 6.1875 -10.6875 C 7.039062 -10.6875 7.769531 -10.476562 8.375 -10.0625 C 8.988281 -9.65625 9.457031 -9.070312 9.78125 -8.3125 C 10.101562 -7.5625 10.265625 -6.660156 10.265625 -5.609375 C 10.265625 -5.429688 10.257812 -5.269531 10.25 -5.125 C 10.238281 -4.976562 10.234375 -4.851562 10.234375 -4.75 Z M 6.21875 -9.53125 C 5.375 -9.53125 4.660156 -9.226562 4.078125 -8.625 C 3.503906 -8.03125 3.179688 -7.113281 3.109375 -5.875 L 9.078125 -5.875 C 9.054688 -7.101562 8.78125 -8.019531 8.25 -8.625 C 7.71875 -9.226562 7.039062 -9.53125 6.21875 -9.53125 Z M 6.21875 -9.53125 "/></g></g></g><g fill="#f4f6fc" fill-opacity="1"><g transform="translate(240.75403, 221.580513)"><g><path d="M 2.296875 0 L 2.296875 -1.046875 L 4 -1.046875 L 4 -9.453125 L 2.296875 -9.453125 L 2.296875 -10.5 L 4.953125 -10.5 L 5.1875 -7.984375 C 5.59375 -8.835938 6.082031 -9.503906 6.65625 -9.984375 C 7.238281 -10.460938 8.019531 -10.703125 9 -10.703125 C 9.269531 -10.703125 9.515625 -10.679688 9.734375 -10.640625 C 9.953125 -10.609375 10.179688 -10.5625 10.421875 -10.5 L 10.0625 -9.328125 C 9.832031 -9.398438 9.628906 -9.445312 9.453125 -9.46875 C 9.273438 -9.5 9.070312 -9.515625 8.84375 -9.515625 C 8 -9.515625 7.28125 -9.226562 6.6875 -8.65625 C 6.09375 -8.082031 5.609375 -7.171875 5.234375 -5.921875 L 5.234375 -1.046875 L 7.40625 -1.046875 L 7.40625 0 Z M 9.078125 -7.203125 L 9.078125 -9.25 L 9.15625 -10.5 L 10.421875 -10.5 L 10.28125 -7.203125 Z M 9.078125 -7.203125 "/></g></g></g></svg>